<svg xmlns="http://www.w3.org/2000/svg" xmlns:xlink="http://www.w3.org/1999/xlink" viewBox="0,0,256,256" width="50px" height="50px"><g transform=""><g fill="#ffffff" fill-rule="nonzero" stroke="none" stroke-width="1" stroke-linecap="butt" stroke-linejoin="miter" stroke-miterlimit="10" stroke-dasharray="" stroke-dashoffset="0" font-family="none" font-weight="none" font-size="none" text-anchor="none" style="mix-blend-mode: normal"><g transform="scale(5.12,5.12)"><path d="M48.99414,9.96484l-6,0.03711c-0.407,0.002 -0.77283,0.25091 -0.92383,0.62891l-1.07031,2.67774l-1.07031,-2.67969c-0.152,-0.38 -0.52069,-0.62891 -0.92969,-0.62891h-4v1l-0.4082,-0.4082c-0.379,-0.379 -0.89269,-0.5918 -1.42969,-0.5918h-7.16016c-0.641,0 -1.25598,0.25403 -1.70898,0.70703l-0.29297,0.29297l-0.30078,-0.30078c-0.448,-0.448 -1.0545,-0.69922 -1.6875,-0.69922h-9.01172v1l-0.29297,-0.29297c-0.453,-0.453 -1.06608,-0.70703 -1.70508,-0.70703h-10.00195c-0.404,0 -0.76983,0.24419 -0.92383,0.61719c-0.155,0.374 -0.0692,0.80384 0.2168,1.08984l1.70703,1.70703v22.58594c0,0.382 0.21755,0.73044 0.56055,0.89844c0.139,0.068 0.29045,0.10156 0.43945,0.10156c0.218,0 0.43428,-0.07194 0.61328,-0.21094l9,-7c0.032,-0.026 0.06375,-0.05203 0.09375,-0.08203c0.401,-0.401 0.66933,-0.74745 0.86133,-1.06445l6.01367,4.33398c0.175,0.126 0.38094,0.18945 0.58594,0.18945c0.211,0 0.42261,-0.06622 0.59961,-0.19922l3.23242,-2.42578l3.23242,2.42578c0.177,0.133 0.38861,0.19922 0.59961,0.19922c0.205,0 0.41094,-0.06345 0.58594,-0.18945l6.57031,-4.73633l3.41211,2.56055c0.303,0.228 0.70788,0.26175 1.04688,0.09375c0.339,-0.17 0.55273,-0.51553 0.55273,-0.89453v-0.76367v-1.23633l0.97656,1.95313h0.04688l0.97656,-1.95312v1.23633v0.76367v3c0,0.314 0.14839,0.61083 0.40039,0.79883l4,3.00195c0.176,0.132 0.38761,0.19922 0.59961,0.19922c0.152,0 0.30627,-0.03547 0.44727,-0.10547c0.339,-0.17 0.55273,-0.51553 0.55273,-0.89453v-22.5918l1.71289,-1.74414c0.283,-0.288 0.36598,-0.71784 0.20898,-1.08984c-0.156,-0.37 -0.52087,-0.60938 -0.92187,-0.60938zM46.60156,11.97852l-0.31445,0.32031c-0.184,0.187 -0.28711,0.43917 -0.28711,0.70117v21l-2,-1.5v-7.5c0,-0.464 -0.31948,-0.86666 -0.77148,-0.97266c-0.45,-0.108 -0.91605,0.11039 -1.12305,0.52539l-1.10547,2.21094l-1.10547,-2.21094c-0.207,-0.415 -0.67705,-0.63239 -1.12305,-0.52539c-0.452,0.106 -0.77148,0.50866 -0.77148,0.97266v3l-2,-1.5v-14.5h2.32227l1.74805,4.37109c0.153,0.379 0.52069,0.62891 0.92969,0.62891c0.409,0 0.77669,-0.24991 0.92969,-0.62891l1.75,-4.375zM3.41406,12h7.58594c0.432,0 1,0.629 1,1v14c0,0.37 -0.00006,0.577 -0.66406,1.25l-7.33594,5.70508v-20.95508c0,-0.265 -0.10497,-0.52003 -0.29297,-0.70703zM14,12h9v16.79297l-2.8457,2.13281l-6.1543,-4.4375v-13.48828zM25,12h9v14.48828l-6.1543,4.4375l-2.8457,-2.13281zM7,15v10l3,-2v-8zM17,15v8l3,2v-10zM28,15v10l3,-2v-8z"></path></g></g></g></svg>