<svg id="Layer_1" data-name="Layer 1" xmlns="http://www.w3.org/2000/svg" viewBox="0 0 432.37 411.38"><defs><style>.cls-1{fill:#4c5434;}</style></defs><path class="cls-1" d="M358.11,222.43c-.07-13.16,0-26.32-.28-39.47a46.08,46.08,0,0,0-1.71-10.32c-3.77-14.88-14-23.23-29.35-23.86-7.32-.3-14.66-.27-22-.07a8,8,0,0,1-7.18-3.32q-14-17.23-28.53-34.1a9.26,9.26,0,0,0-6.15-3q-60.46-.25-120.94,0a8.5,8.5,0,0,0-5.91,3.2c-5.27,7.28-10.07,14.9-15.09,22.35-3.25,4.83-5.59,11.49-10.15,13.87-4.74,2.48-11.66.85-17.62.91-6.26.07-12.51,0-18.8,0v81.13c11,0,21.8.09,32.58-.05,2.87,0,4.81.62,6.74,3C125,247,145,246.88,156.55,232.85a9,9,0,0,1,6.07-2.94c35.65-.18,71.3-.09,107-.2,3,0,4.72,1,6.56,3.33,11.23,13.93,31.19,13.84,42.36-.21a7.39,7.39,0,0,1,6.7-3.11c10.78.15,21.56.06,32.92.06C358.11,226.74,358.12,224.59,358.11,222.43ZM216.47,121.71h14.4c4,0,8.1.6,12-.11,13.09-2.41,22.16,2.69,28.91,13.71,2.75,4.48,6.67,8.24,10.54,12.9H216.47Zm-71.9,1.48a4.66,4.66,0,0,1,3.39-1.41c18-.09,35.93-.06,54.4-.06v26.66H127.69C133.52,139.63,139,131.35,144.57,123.19ZM135,229.72a13.47,13.47,0,1,1,13.46-13.24A13.53,13.53,0,0,1,135,229.72Zm162.32,0a13.47,13.47,0,1,1,.18-26.93,13.47,13.47,0,0,1-.18,26.93ZM344.2,216H324.66c-1.05-9.32-4.69-17.4-13.09-22.66a27.05,27.05,0,0,0-17.21-3.9c-12.91,1.09-21.48,10.21-24.62,26.65h-107c-4.9-18.91-13.61-27.06-28.4-26.77-14.12.29-22.85,8.9-26.91,26.7-.89.09-1.86.27-2.83.28-5.3,0-10.61,0-16.35,0V189.4h12.67V175.72H88.14V162.67H202.57v33h13.52v-33c2.2-.12,3.82-.28,5.43-.28,34,0,68,0,102-.05,8.07,0,14.9,1.88,18.33,10.09a20.05,20.05,0,0,1,.74,3.21h-11.1v13.7H344.2Z"/><path class="cls-1" d="M432.35,44.86A46.56,46.56,0,0,0,400.94,2.68,47.86,47.86,0,0,0,349.1,16.35c-13,15-14.74,32.76-4.8,51,10.42,19,25,34.82,40.79,50.43,15.9-15.67,30.62-31.65,41.11-51C429.87,59.9,432.61,52.82,432.35,44.86Zm-16.3,11.52c-4.49,11.29-21.12,33.1-31.22,41.8-11-11.84-21.05-23.93-28.93-37.78-6.61-11.6-5.9-22.71,2-33.14,8.21-10.9,19.56-15.35,33-13.12,15.22,2.52,26,13.74,27.58,28.77C418.88,47.29,417.71,52.2,416.05,56.38Z"/><path class="cls-1" d="M87.55,67.87V81H74.43V67.87Z"/><path class="cls-1" d="M74.48,94.78h13V108h-13Z"/><path class="cls-1" d="M74.42,121.82h13V135h-13Z"/><path class="cls-1" d="M240.58,53.8h-13V41h13Z"/><path class="cls-1" d="M278.54,40.74h13.15V53.67H278.54Z"/><path class="cls-1" d="M138.55,53.84H125.41v-13h13.14Z"/><path class="cls-1" d="M176.56,40.81h13.1v13h-13.1Z"/><path class="cls-1" d="M344.81,285.29v-13H357.7v13Z"/><path class="cls-1" d="M74.59,53.75c-1.53-11.39,1.69-14.58,13-12.66V53.75Z"/><path class="cls-1" d="M202.26,40.68h12.68V53.8H202.26Z"/><path class="cls-1" d="M151.14,40.77H164v13.1H151.14Z"/><path class="cls-1" d="M345.07,243.62H357.8v12.87H345.07Z"/><path class="cls-1" d="M317,54H304.37V40.85H317Z"/><path class="cls-1" d="M113,40.94v13H100.06v-13Z"/><path class="cls-1" d="M266.06,53.85H253.27v-13h12.79Z"/><rect class="cls-1" x="378.52" y="40.9" width="13.11" height="12.93"/><path class="cls-1" d="M62.51,296.17a47.74,47.74,0,0,0-51.65,14.21c-12.79,15.1-14.39,32.54-4.25,51,10.38,18.85,24.78,34.5,40.59,50,17.16-17.09,33.44-34.2,43.36-56.09A41.48,41.48,0,0,0,94.2,338C93.84,318.83,80.92,302.36,62.51,296.17Zm15.75,53.49c-7.17,16.18-18.89,29.17-31.06,42.48-11.23-12.08-21-24.2-29.08-37.71C5.39,333.22,21.88,311.82,39.64,308c19.21-4.13,38.11,8.23,40.75,27.68A27.2,27.2,0,0,1,78.26,349.66Z"/><path class="cls-1" d="M344.72,318.63V305.86h13.09v12.77Z"/><path class="cls-1" d="M153.58,347.51h-13V334.56h13Z"/><path class="cls-1" d="M204.7,334.48V347.4H191.57V334.48Z"/><path class="cls-1" d="M242.61,334.48h13v12.93h-13Z"/><path class="cls-1" d="M306.74,347.51h-13v-13h13Z"/><path class="cls-1" d="M332.13,347.58H319.38v-13h12.75Z"/><path class="cls-1" d="M344.85,334.52h12.7c1.77,11.31-.83,14-12.7,12.83Z"/><path class="cls-1" d="M128,347.46H115.12V334.62H128Z"/><path class="cls-1" d="M166.12,347.36V334.6H179v12.76Z"/><path class="cls-1" d="M281.17,334.58V347.4h-13V334.58Z"/><path class="cls-1" d="M230,347.48H217.18V334.62H230Z"/><rect class="cls-1" x="40.58" y="334.6" width="13.08" height="12.83"/></svg>